<?xml version="1.0" encoding="utf-8"?>
<!-- Generator: Adobe Illustrator 15.0.0, SVG Export Plug-In . SVG Version: 6.00 Build 0)  -->
<!DOCTYPE svg PUBLIC "-//W3C//DTD SVG 1.1//EN" "http://www.w3.org/Graphics/SVG/1.1/DTD/svg11.dtd">
<svg version="1.1" id="Layer_1" xmlns="http://www.w3.org/2000/svg" xmlns:xlink="http://www.w3.org/1999/xlink" x="0px" y="0px"
	 width="106.235px" height="49.98px" viewBox="0 0 106.235 48" enable-background="new 0 0 106.235 48" xml:space="preserve">
<g>
	<path fill="#FFFFFF" d="M7.212,8.146c0,1.63,0,2.971,0.085,3.684c0.051,0.492,0.153,0.865,0.662,0.933
		c0.237,0.033,0.61,0.067,0.763,0.067c0.102,0,0.136,0.051,0.136,0.103c0,0.085-0.085,0.136-0.271,0.136
		c-0.934,0-2.003-0.051-2.087-0.051c-0.085,0-1.155,0.051-1.663,0.051c-0.188,0-0.272-0.034-0.272-0.136
		c0-0.052,0.033-0.103,0.136-0.103c0.152,0,0.356-0.034,0.509-0.067c0.339-0.067,0.424-0.44,0.492-0.933
		c0.085-0.713,0.085-2.054,0.085-3.684V0.969L3.274,1.002C2.223,1.02,1.816,1.139,1.544,1.545C1.358,1.834,1.307,1.953,1.255,2.071
		c-0.05,0.136-0.101,0.17-0.169,0.17c-0.05,0-0.085-0.051-0.085-0.153c0-0.17,0.339-1.629,0.373-1.764C1.408,0.223,1.476,0,1.544,0
		c0.119,0,0.289,0.171,0.747,0.205c0.492,0.05,1.137,0.084,1.34,0.084h6.364c0.543,0,0.933-0.034,1.205-0.084
		c0.255-0.034,0.407-0.085,0.475-0.085c0.085,0,0.085,0.103,0.085,0.204c0,0.508-0.05,1.679-0.05,1.866
		c0,0.153-0.052,0.221-0.12,0.221c-0.085,0-0.119-0.051-0.135-0.289l-0.017-0.186c-0.052-0.51-0.459-0.899-2.088-0.935L7.212,0.969
		V8.146z"/>
	<path fill="#FFFFFF" d="M15.324,5.16c0-2.647,0-3.122-0.033-3.666c-0.035-0.576-0.171-0.849-0.731-0.967
		c-0.135-0.034-0.423-0.052-0.576-0.052c-0.068,0-0.137-0.032-0.137-0.101c0-0.103,0.085-0.136,0.272-0.136
		c0.391,0,0.849,0,1.222,0.017l0.696,0.033c0.118,0,3.496,0,3.886-0.017c0.323-0.017,0.593-0.051,0.729-0.085
		c0.086-0.017,0.153-0.085,0.238-0.085c0.051,0,0.068,0.068,0.068,0.153c0,0.119-0.084,0.323-0.136,0.798
		c-0.017,0.169-0.051,0.916-0.084,1.12C20.72,2.258,20.686,2.36,20.619,2.36c-0.103,0-0.136-0.086-0.136-0.221
		c0-0.12-0.016-0.408-0.102-0.61c-0.118-0.271-0.288-0.476-1.205-0.578c-0.288-0.033-2.138-0.052-2.325-0.052
		c-0.068,0-0.101,0.052-0.101,0.171v4.684c0,0.118,0.016,0.17,0.101,0.17c0.221,0,2.309,0,2.699-0.034
		c0.407-0.034,0.644-0.067,0.797-0.236c0.12-0.137,0.187-0.223,0.255-0.223c0.05,0,0.084,0.035,0.084,0.136
		c0,0.104-0.084,0.392-0.135,0.95c-0.035,0.34-0.068,0.969-0.068,1.086c0,0.137,0,0.324-0.119,0.324
		c-0.085,0-0.118-0.069-0.118-0.153c0-0.171,0-0.34-0.068-0.561c-0.069-0.237-0.221-0.526-0.883-0.594
		c-0.458-0.05-2.138-0.084-2.426-0.084c-0.086,0-0.119,0.051-0.119,0.118v1.492c0,0.578-0.018,2.548,0,2.903
		c0.051,1.171,0.304,1.391,1.968,1.391c0.442,0,1.188,0,1.629-0.186c0.441-0.188,0.645-0.527,0.764-1.223
		c0.033-0.186,0.068-0.254,0.152-0.254c0.102,0,0.102,0.136,0.102,0.254c0,0.137-0.136,1.291-0.221,1.646
		c-0.118,0.441-0.254,0.441-0.916,0.441c-1.273,0-2.206-0.033-2.867-0.051c-0.663-0.034-1.07-0.052-1.324-0.052
		c-0.034,0-0.322,0-0.68,0.018c-0.338,0-0.728,0.034-0.983,0.034c-0.188,0-0.272-0.034-0.272-0.136c0-0.051,0.035-0.102,0.136-0.102
		c0.152,0,0.356-0.034,0.509-0.068c0.339-0.067,0.425-0.44,0.491-0.933c0.086-0.713,0.086-2.054,0.086-3.685V5.16z"/>
	<path fill="#FFFFFF" d="M28.424,6.518l-2.716-4.564c-0.39-0.663-0.746-1.154-1.324-1.357c-0.271-0.085-0.609-0.119-0.712-0.119
		c-0.101,0-0.152-0.051-0.152-0.119c0-0.085,0.067-0.119,0.288-0.119c0.475,0,1.85,0.051,1.985,0.051
		c0.153,0,1.019-0.051,1.596-0.051c0.237,0,0.288,0.034,0.288,0.119s-0.051,0.119-0.152,0.119c-0.102,0-0.324,0-0.459,0.051
		c-0.153,0.052-0.203,0.169-0.203,0.288c0,0.17,0.068,0.373,0.169,0.56c0.713,1.342,1.409,2.598,2.291,4.057
		c0.509-0.729,2.326-3.631,2.495-3.988c0.119-0.255,0.17-0.406,0.17-0.611c0-0.117-0.12-0.253-0.29-0.305
		c-0.169-0.051-0.406-0.051-0.508-0.051c-0.101,0-0.153-0.034-0.153-0.119c0-0.068,0.085-0.119,0.288-0.119
		c0.645,0,1.359,0.051,1.511,0.051c0.153,0,0.849-0.051,1.425-0.051c0.187,0,0.271,0.051,0.271,0.119s-0.067,0.119-0.185,0.119
		c-0.119,0-0.374,0.017-0.561,0.084c-0.492,0.154-0.814,0.645-1.306,1.375l-2.732,4.106c0.322,0.526,3.224,5.465,3.579,5.924
		c0.272,0.356,0.51,0.61,1.002,0.763c0.239,0.067,0.492,0.102,0.594,0.102c0.085,0,0.136,0.035,0.136,0.103
		c0,0.085-0.084,0.136-0.238,0.136c-1.035,0-1.849,0-2.714-0.034c-0.442-0.017-0.527-0.051-0.527-0.136
		c0-0.068,0.034-0.119,0.103-0.136c0.084-0.034,0.237-0.203,0.084-0.475c-0.916-1.664-1.901-3.344-2.919-5.057L26.2,11.728
		c-0.152,0.271-0.22,0.577-0.22,0.747s0.119,0.288,0.271,0.321c0.103,0.018,0.238,0.034,0.323,0.034s0.136,0.052,0.136,0.119
		c0,0.085-0.085,0.119-0.204,0.119c-0.407,0-1.476-0.051-1.629-0.051c-0.153,0-0.984,0.051-1.545,0.051
		c-0.136,0-0.169-0.051-0.169-0.119c0-0.067,0.051-0.119,0.136-0.119c0.136,0,0.39-0.017,0.645-0.084
		c0.508-0.136,0.865-0.51,1.409-1.375L28.424,6.518z"/>
	<path fill="#FFFFFF" d="M40.167,0.663c0.204-0.561,0.272-0.662,0.373-0.662c0.102,0,0.17,0.086,0.373,0.611
		c0.255,0.646,2.919,7.652,3.955,10.233c0.611,1.509,1.103,1.781,1.46,1.882c0.254,0.085,0.508,0.104,0.678,0.104
		c0.102,0,0.169,0.016,0.169,0.101c0,0.103-0.152,0.137-0.339,0.137c-0.254,0-1.493,0-2.664-0.034
		c-0.323-0.018-0.509-0.018-0.509-0.119c0-0.068,0.051-0.103,0.119-0.118c0.101-0.035,0.204-0.187,0.101-0.458l-1.577-4.175
		c-0.035-0.068-0.068-0.103-0.152-0.103h-3.65c-0.085,0-0.135,0.052-0.169,0.137l-1.019,3.003c-0.153,0.425-0.236,0.832-0.236,1.138
		c0,0.339,0.355,0.492,0.643,0.492h0.171c0.119,0,0.169,0.034,0.169,0.101c0,0.103-0.103,0.137-0.255,0.137
		c-0.406,0-1.136-0.052-1.323-0.052s-1.12,0.052-1.917,0.052c-0.221,0-0.323-0.034-0.323-0.137c0-0.066,0.068-0.101,0.153-0.101
		c0.117,0,0.355-0.019,0.492-0.034c0.78-0.102,1.12-0.746,1.426-1.596L40.167,0.663z M41.932,7.451c0.085,0,0.085-0.051,0.068-0.119
		l-1.612-4.581c-0.086-0.255-0.17-0.255-0.255,0L38.64,7.332c-0.034,0.085,0,0.119,0.051,0.119H41.932z"/>
	<path fill="#FFFFFF" d="M48.668,12.848c-0.237-0.119-0.254-0.188-0.254-0.646c0-0.849,0.068-1.526,0.085-1.798
		c0.017-0.187,0.051-0.271,0.136-0.271c0.101,0,0.119,0.051,0.119,0.187c0,0.153,0,0.39,0.05,0.627
		c0.255,1.256,1.375,1.731,2.511,1.731c1.629,0,2.427-1.171,2.427-2.257c0-1.172-0.491-1.849-1.95-3.054l-0.765-0.629
		c-1.799-1.476-2.206-2.529-2.206-3.683C48.821,1.24,50.179,0,52.334,0c0.662,0,1.153,0.069,1.578,0.171
		c0.322,0.067,0.458,0.085,0.594,0.085c0.137,0,0.17,0.033,0.17,0.118s-0.068,0.646-0.068,1.8c0,0.271-0.033,0.39-0.119,0.39
		c-0.101,0-0.118-0.084-0.135-0.22c-0.017-0.204-0.119-0.662-0.221-0.851c-0.102-0.186-0.561-0.897-2.121-0.897
		c-1.171,0-2.087,0.729-2.087,1.968c0,0.968,0.44,1.578,2.07,2.851l0.475,0.374c2.003,1.579,2.478,2.629,2.478,3.988
		c0,0.696-0.271,1.985-1.442,2.817c-0.73,0.509-1.647,0.713-2.563,0.713C50.146,13.307,49.364,13.188,48.668,12.848"/>
	<path fill="#FFFFFF" d="M67.386,0.663c0.203-0.561,0.271-0.662,0.373-0.662c0.103,0,0.17,0.086,0.374,0.611
		c0.255,0.646,2.919,7.652,3.954,10.233c0.611,1.509,1.104,1.781,1.459,1.882c0.256,0.085,0.51,0.104,0.68,0.104
		c0.102,0,0.17,0.016,0.17,0.101c0,0.103-0.153,0.137-0.34,0.137c-0.254,0-1.494,0-2.664-0.034c-0.323-0.018-0.51-0.018-0.51-0.119
		c0-0.068,0.051-0.103,0.118-0.118c0.103-0.035,0.204-0.187,0.103-0.458l-1.577-4.175c-0.035-0.068-0.068-0.103-0.153-0.103h-3.648
		c-0.086,0-0.137,0.052-0.17,0.137l-1.018,3.003c-0.153,0.425-0.24,0.832-0.24,1.138c0,0.339,0.358,0.492,0.646,0.492h0.17
		c0.119,0,0.17,0.034,0.17,0.101c0,0.103-0.102,0.137-0.255,0.137c-0.407,0-1.137-0.052-1.323-0.052
		c-0.188,0-1.121,0.052-1.918,0.052c-0.221,0-0.323-0.034-0.323-0.137c0-0.066,0.069-0.101,0.153-0.101
		c0.119,0,0.356-0.019,0.492-0.034c0.78-0.102,1.119-0.746,1.426-1.596L67.386,0.663z M69.151,7.451
		c0.087,0,0.087-0.051,0.069-0.119l-1.613-4.581c-0.085-0.255-0.169-0.255-0.254,0L65.86,7.332c-0.034,0.085,0,0.119,0.05,0.119
		H69.151z"/>
	<path fill="#FFFFFF" d="M74.65,9.556c0-1.985,1.273-3.31,2.597-4.091c-0.628-0.882-0.831-1.578-0.831-2.341
		c0-1.341,1.374-3.123,3.647-3.123c0.866,0,1.595,0.17,2.054,0.424c0.204,0.119,0.221,0.222,0.221,0.425
		c0,0.51-0.068,1.697-0.12,1.951c-0.05,0.255-0.101,0.288-0.169,0.288c-0.084,0-0.102-0.066-0.102-0.321
		c0-0.441-0.101-1.002-0.526-1.442c-0.372-0.391-0.949-0.746-1.696-0.746c-1.019,0-2.155,0.627-2.155,2.222
		c0,1.324,0.916,2.427,2.681,4.346c0.577,0.628,2.665,2.579,3.208,3.037c0.476-0.645,0.864-1.782,0.864-2.816
		c0-0.255-0.066-0.578-0.32-0.833c-0.223-0.22-0.578-0.272-0.832-0.272c-0.103,0-0.204-0.032-0.204-0.117
		c0-0.084,0.136-0.119,0.271-0.119c0.407,0,1.085,0.018,2.036,0.119c0.255,0.033,0.306,0.17,0.306,0.34
		c0,1.374-0.933,3.088-1.68,4.005c1.12,0.95,1.867,1.408,2.341,1.681c0.543,0.321,1.409,0.661,2.02,0.661
		c0.152,0,0.238,0.017,0.238,0.118c0,0.068-0.136,0.119-0.289,0.119h-1.662c-1.256,0-1.664-0.119-3.53-1.596
		c-0.39,0.391-1.731,1.834-4.242,1.834C75.804,13.307,74.65,11.031,74.65,9.556 M82.575,11.15c-0.95-0.78-2.63-2.394-3.071-2.868
		s-1.527-1.679-2.002-2.375c-0.883,0.577-1.527,1.493-1.527,2.85c0,2.122,1.492,3.649,3.395,3.649
		C80.946,12.406,81.998,11.744,82.575,11.15"/>
	<path fill="#FFFFFF" d="M102.6,10.879c0.067,0.61,0.186,1.562,0.915,1.799c0.493,0.153,0.935,0.153,1.103,0.153
		c0.087,0,0.138,0.017,0.138,0.084c0,0.103-0.154,0.152-0.357,0.152c-0.373,0-2.206-0.05-2.834-0.101
		c-0.39-0.034-0.476-0.085-0.476-0.17c0-0.068,0.034-0.103,0.12-0.119c0.084-0.017,0.102-0.305,0.067-0.61l-0.813-8.757h-0.053
		l-4.156,8.824c-0.357,0.747-0.408,0.898-0.561,0.898c-0.119,0-0.203-0.169-0.526-0.779c-0.441-0.832-1.9-3.769-1.985-3.937
		c-0.152-0.307-2.053-4.379-2.24-4.838h-0.068l-0.679,7.874c-0.017,0.272-0.017,0.578-0.017,0.866c0,0.255,0.188,0.475,0.44,0.526
		c0.29,0.067,0.543,0.085,0.646,0.085c0.068,0,0.137,0.033,0.137,0.084c0,0.118-0.104,0.152-0.307,0.152
		c-0.629,0-1.442-0.05-1.578-0.05c-0.152,0-0.967,0.05-1.426,0.05c-0.17,0-0.288-0.034-0.288-0.152c0-0.051,0.085-0.084,0.17-0.084
		c0.135,0,0.255,0,0.509-0.053c0.561-0.101,0.611-0.763,0.679-1.407L90.38,0.307c0.018-0.187,0.084-0.306,0.188-0.306
		c0.102,0,0.169,0.067,0.255,0.255l5.192,10.674l4.989-10.657c0.067-0.152,0.136-0.271,0.255-0.271c0.118,0,0.168,0.136,0.203,0.459
		L102.6,10.879z"/>
	<path fill="#FFFFFF" d="M2.061,23.576c0-1.713,0-2.021-0.023-2.371c-0.021-0.374-0.109-0.549-0.471-0.626
		c-0.088-0.023-0.275-0.033-0.374-0.033c-0.044,0-0.087-0.021-0.087-0.067c0-0.064,0.055-0.088,0.176-0.088
		c0.493,0,1.164,0.035,1.262,0.035c0.099,0,0.757-0.035,1.087-0.035c0.12,0,0.176,0.023,0.176,0.088
		c0,0.046-0.044,0.067-0.088,0.067c-0.077,0-0.142,0.01-0.275,0.033c-0.296,0.044-0.384,0.241-0.406,0.626
		c-0.022,0.351-0.022,0.658-0.022,2.371v1.537c0,1.581,0.352,2.262,0.823,2.713c0.538,0.506,1.033,0.604,1.658,0.604
		c0.67,0,1.33-0.319,1.725-0.791c0.505-0.625,0.636-1.56,0.636-2.69v-1.373c0-1.713,0-2.021-0.022-2.371
		c-0.021-0.374-0.109-0.549-0.471-0.626c-0.088-0.023-0.275-0.033-0.373-0.033c-0.045,0-0.089-0.021-0.089-0.067
		c0-0.064,0.055-0.088,0.176-0.088c0.494,0,1.098,0.035,1.164,0.035c0.077,0,0.593-0.035,0.923-0.035
		c0.121,0,0.175,0.023,0.175,0.088c0,0.046-0.045,0.067-0.088,0.067c-0.077,0-0.142,0.01-0.274,0.033
		c-0.297,0.064-0.385,0.241-0.406,0.626c-0.022,0.351-0.022,0.658-0.022,2.371v1.176c0,1.186-0.133,2.503-1.011,3.283
		c-0.79,0.702-1.614,0.812-2.262,0.812c-0.373,0-1.482-0.044-2.262-0.779c-0.538-0.517-0.955-1.285-0.955-2.887V23.576z"/>
	<path fill="#FFFFFF" d="M15.511,27.201c0.023,0.899,0.132,1.186,0.429,1.272c0.209,0.056,0.45,0.065,0.55,0.065
		c0.054,0,0.087,0.022,0.087,0.066c0,0.066-0.066,0.088-0.197,0.088c-0.627,0-1.066-0.033-1.164-0.033
		c-0.1,0-0.56,0.033-1.055,0.033c-0.109,0-0.175-0.011-0.175-0.088c0-0.044,0.033-0.066,0.088-0.066c0.087,0,0.285-0.01,0.449-0.065
		c0.275-0.077,0.33-0.395,0.33-1.395l0.011-6.292c0-0.428,0.033-0.549,0.121-0.549s0.274,0.24,0.383,0.352
		c0.166,0.187,1.802,1.954,3.493,3.767c1.087,1.164,2.284,2.504,2.635,2.866l-0.121-5.58c-0.01-0.713-0.088-0.953-0.428-1.042
		c-0.198-0.045-0.45-0.055-0.538-0.055c-0.077,0-0.087-0.034-0.087-0.077c0-0.065,0.087-0.078,0.218-0.078
		c0.494,0,1.022,0.035,1.143,0.035s0.482-0.035,0.933-0.035c0.122,0,0.198,0.013,0.198,0.078c0,0.043-0.044,0.077-0.121,0.077
		c-0.055,0-0.132,0-0.264,0.033c-0.362,0.077-0.406,0.316-0.406,0.977l-0.022,6.435c0,0.726-0.021,0.78-0.099,0.78
		c-0.088,0-0.219-0.121-0.801-0.703c-0.121-0.109-1.702-1.724-2.865-2.976c-1.275-1.373-2.516-2.756-2.868-3.151L15.511,27.201z"/>
	<path fill="#FFFFFF" d="M29.941,25.509c0,1.055,0,1.922,0.055,2.383c0.032,0.319,0.098,0.56,0.427,0.604
		c0.155,0.021,0.396,0.043,0.495,0.043c0.065,0,0.087,0.033,0.087,0.066c0,0.055-0.054,0.087-0.175,0.087
		c-0.604,0-1.296-0.032-1.351-0.032c-0.055,0-0.747,0.032-1.076,0.032c-0.12,0-0.175-0.021-0.175-0.087
		c0-0.033,0.022-0.066,0.087-0.066c0.099,0,0.231-0.021,0.33-0.043c0.219-0.045,0.275-0.285,0.318-0.604
		c0.055-0.461,0.055-1.328,0.055-2.383v-1.934c0-1.713,0-2.019-0.022-2.371c-0.022-0.373-0.132-0.56-0.373-0.614
		c-0.121-0.033-0.264-0.044-0.34-0.044c-0.045,0-0.088-0.021-0.088-0.066c0-0.065,0.055-0.088,0.176-0.088
		c0.361,0,1.053,0.034,1.108,0.034c0.055,0,0.747-0.034,1.076-0.034c0.121,0,0.176,0.022,0.176,0.088
		c0,0.045-0.044,0.066-0.088,0.066c-0.077,0-0.143,0.011-0.274,0.032c-0.297,0.056-0.385,0.241-0.407,0.626
		c-0.021,0.353-0.021,0.658-0.021,2.371V25.509z"/>
	<path fill="#FFFFFF" d="M39.636,27.354c0.637-1.472,2.108-5.304,2.35-6.094c0.054-0.165,0.099-0.318,0.099-0.419
		c0-0.088-0.033-0.196-0.143-0.252c-0.131-0.044-0.296-0.044-0.417-0.044c-0.067,0-0.121-0.011-0.121-0.065
		c0-0.065,0.066-0.088,0.242-0.088c0.439,0,0.943,0.033,1.075,0.033c0.066,0,0.538-0.033,0.857-0.033
		c0.12,0,0.187,0.022,0.187,0.077c0,0.056-0.045,0.076-0.132,0.076c-0.077,0-0.318,0-0.527,0.133
		c-0.143,0.099-0.308,0.284-0.605,1.031c-0.12,0.309-0.669,1.625-1.229,2.978c-0.67,1.603-1.163,2.788-1.416,3.326
		c-0.308,0.659-0.352,0.834-0.462,0.834c-0.131,0-0.186-0.153-0.395-0.681l-2.69-6.73c-0.241-0.615-0.406-0.736-0.79-0.847
		c-0.165-0.044-0.353-0.044-0.418-0.044c-0.067,0-0.088-0.032-0.088-0.076c0-0.065,0.11-0.077,0.286-0.077
		c0.526,0,1.153,0.033,1.284,0.033c0.11,0,0.605-0.033,1.022-0.033c0.197,0,0.297,0.022,0.297,0.077
		c0,0.056-0.034,0.076-0.111,0.076c-0.12,0-0.318,0.012-0.418,0.057c-0.12,0.055-0.142,0.143-0.142,0.219
		c0,0.142,0.133,0.483,0.297,0.911L39.636,27.354z"/>
	<path fill="#FFFFFF" d="M48.804,23.576c0-1.713,0-2.021-0.021-2.371c-0.023-0.374-0.11-0.549-0.473-0.626
		c-0.088-0.023-0.275-0.033-0.373-0.033c-0.043,0-0.088-0.021-0.088-0.067c0-0.064,0.055-0.088,0.176-0.088
		c0.253,0,0.549,0,0.791,0.013l0.449,0.022c0.078,0,2.262,0,2.515-0.012c0.209-0.011,0.384-0.033,0.471-0.055
		c0.056-0.013,0.1-0.057,0.156-0.057c0.032,0,0.043,0.044,0.043,0.101c0,0.075-0.054,0.209-0.088,0.517
		c-0.011,0.109-0.033,0.592-0.055,0.723c-0.011,0.056-0.032,0.121-0.076,0.121c-0.067,0-0.089-0.054-0.089-0.142
		c0-0.077-0.01-0.264-0.065-0.396c-0.077-0.175-0.187-0.306-0.78-0.373c-0.186-0.021-1.384-0.032-1.504-0.032
		c-0.045,0-0.066,0.032-0.066,0.109v3.031c0,0.077,0.011,0.109,0.066,0.109c0.143,0,1.493,0,1.745-0.021
		c0.264-0.021,0.418-0.043,0.517-0.155c0.077-0.087,0.12-0.141,0.164-0.141c0.032,0,0.056,0.021,0.056,0.087
		c0,0.066-0.056,0.252-0.088,0.615c-0.023,0.22-0.045,0.626-0.045,0.703c0,0.088,0,0.208-0.076,0.208
		c-0.055,0-0.077-0.044-0.077-0.099c0-0.109,0-0.22-0.044-0.362c-0.044-0.153-0.143-0.341-0.571-0.386
		c-0.298-0.031-1.383-0.054-1.571-0.054c-0.055,0-0.076,0.033-0.076,0.077v0.966c0,0.373-0.011,1.647,0,1.878
		c0.032,0.758,0.197,0.9,1.273,0.9c0.286,0,0.769,0,1.055-0.121c0.286-0.12,0.417-0.34,0.493-0.791
		c0.024-0.12,0.045-0.164,0.1-0.164c0.065,0,0.065,0.088,0.065,0.164c0,0.089-0.088,0.836-0.143,1.066
		c-0.077,0.285-0.163,0.285-0.593,0.285c-0.822,0-1.427-0.022-1.855-0.033c-0.428-0.021-0.691-0.033-0.857-0.033
		c-0.022,0-0.207,0-0.439,0.012c-0.219,0-0.471,0.021-0.637,0.021c-0.12,0-0.175-0.021-0.175-0.088c0-0.033,0.021-0.066,0.087-0.066
		c0.099,0,0.231-0.021,0.33-0.043c0.22-0.045,0.274-0.285,0.318-0.604c0.055-0.461,0.055-1.328,0.055-2.383V23.576z"/>
	<path fill="#FFFFFF" d="M58.906,23.576c0-1.713,0-2.021-0.021-2.371c-0.022-0.374-0.11-0.549-0.473-0.626
		c-0.088-0.023-0.274-0.033-0.374-0.033c-0.044,0-0.088-0.021-0.088-0.067c0-0.064,0.055-0.088,0.176-0.088
		c0.494,0,1.187,0.035,1.242,0.035c0.12,0,0.954-0.035,1.295-0.035c0.691,0,1.428,0.067,2.01,0.484
		c0.274,0.198,0.757,0.735,0.757,1.493c0,0.813-0.341,1.626-1.328,2.537c0.9,1.152,1.646,2.13,2.283,2.812
		c0.594,0.625,1.065,0.746,1.341,0.789c0.208,0.033,0.361,0.033,0.428,0.033c0.055,0,0.098,0.033,0.098,0.066
		c0,0.066-0.064,0.088-0.262,0.088h-0.78c-0.614,0-0.89-0.054-1.175-0.209c-0.472-0.252-0.855-0.79-1.482-1.613
		c-0.461-0.604-0.979-1.34-1.197-1.625c-0.043-0.045-0.076-0.065-0.143-0.065l-1.352-0.022c-0.056,0-0.076,0.033-0.076,0.088v0.263
		c0,1.055,0,1.922,0.055,2.383c0.033,0.319,0.1,0.56,0.429,0.604c0.153,0.021,0.396,0.043,0.494,0.043
		c0.066,0,0.087,0.033,0.087,0.066c0,0.055-0.054,0.088-0.176,0.088c-0.603,0-1.294-0.033-1.35-0.033
		c-0.011,0-0.703,0.033-1.032,0.033c-0.121,0-0.176-0.021-0.176-0.088c0-0.033,0.022-0.066,0.088-0.066
		c0.1,0,0.231-0.021,0.33-0.043c0.22-0.045,0.274-0.285,0.317-0.604c0.055-0.461,0.055-1.328,0.055-2.383V23.576z M59.785,24.532
		c0,0.055,0.021,0.098,0.076,0.131c0.166,0.099,0.671,0.177,1.153,0.177c0.265,0,0.571-0.034,0.825-0.21
		c0.383-0.263,0.67-0.855,0.67-1.69c0-1.372-0.726-2.195-1.9-2.195c-0.329,0-0.626,0.032-0.736,0.064
		c-0.055,0.022-0.088,0.066-0.088,0.133V24.532z"/>
	<path fill="#FFFFFF" d="M69.777,28.551c-0.153-0.077-0.164-0.121-0.164-0.417c0-0.549,0.043-0.988,0.055-1.164
		c0.011-0.121,0.033-0.176,0.088-0.176c0.065,0,0.076,0.033,0.076,0.121c0,0.099,0,0.252,0.033,0.406
		c0.165,0.813,0.89,1.12,1.626,1.12c1.054,0,1.569-0.758,1.569-1.461c0-0.758-0.318-1.196-1.264-1.977l-0.492-0.406
		c-1.164-0.955-1.429-1.637-1.429-2.383c0-1.175,0.879-1.978,2.274-1.978c0.428,0,0.746,0.044,1.021,0.11
		c0.208,0.044,0.296,0.056,0.384,0.056s0.11,0.022,0.11,0.076s-0.044,0.417-0.044,1.164c0,0.177-0.023,0.253-0.077,0.253
		c-0.065,0-0.077-0.055-0.088-0.143c-0.011-0.132-0.077-0.429-0.143-0.55c-0.066-0.12-0.362-0.581-1.372-0.581
		c-0.758,0-1.353,0.472-1.353,1.273c0,0.626,0.287,1.021,1.341,1.844l0.308,0.242c1.296,1.021,1.602,1.702,1.602,2.581
		c0,0.45-0.174,1.284-0.933,1.823c-0.471,0.329-1.064,0.46-1.656,0.46C70.732,28.847,70.228,28.771,69.777,28.551"/>
	<path fill="#FFFFFF" d="M81.066,25.509c0,1.055,0,1.922,0.055,2.383c0.033,0.319,0.099,0.56,0.428,0.604
		c0.153,0.021,0.396,0.043,0.493,0.043c0.067,0,0.089,0.033,0.089,0.066c0,0.055-0.055,0.087-0.175,0.087
		c-0.604,0-1.296-0.032-1.352-0.032c-0.055,0-0.745,0.032-1.076,0.032c-0.12,0-0.175-0.021-0.175-0.087
		c0-0.033,0.021-0.066,0.087-0.066c0.099,0,0.229-0.021,0.329-0.043c0.22-0.045,0.275-0.285,0.319-0.604
		c0.056-0.461,0.056-1.328,0.056-2.383v-1.934c0-1.713,0-2.019-0.023-2.371c-0.021-0.373-0.132-0.56-0.372-0.614
		c-0.122-0.033-0.265-0.044-0.341-0.044c-0.045,0-0.089-0.021-0.089-0.066c0-0.065,0.055-0.088,0.176-0.088
		c0.364,0,1.055,0.034,1.109,0.034c0.056,0,0.747-0.034,1.076-0.034c0.121,0,0.177,0.022,0.177,0.088
		c0,0.045-0.045,0.066-0.09,0.066c-0.076,0-0.143,0.011-0.273,0.032c-0.296,0.056-0.385,0.241-0.408,0.626
		c-0.02,0.353-0.02,0.658-0.02,2.371V25.509z"/>
	<path fill="#FFFFFF" d="M90.717,25.509c0,1.055,0,1.922,0.056,2.383c0.031,0.319,0.098,0.56,0.428,0.604
		c0.152,0.021,0.395,0.043,0.493,0.043c0.065,0,0.09,0.033,0.09,0.066c0,0.055-0.056,0.087-0.177,0.087
		c-0.604,0-1.297-0.032-1.351-0.032c-0.055,0-0.748,0.032-1.076,0.032c-0.12,0-0.176-0.021-0.176-0.087
		c0-0.033,0.021-0.066,0.087-0.066c0.1,0,0.23-0.021,0.33-0.043c0.219-0.045,0.275-0.285,0.318-0.604
		c0.055-0.461,0.055-1.328,0.055-2.383v-4.646l-1.624,0.022c-0.681,0.011-0.946,0.089-1.121,0.352
		c-0.12,0.187-0.154,0.264-0.187,0.34c-0.033,0.089-0.066,0.11-0.109,0.11c-0.034,0-0.054-0.033-0.054-0.099
		c0-0.109,0.219-1.056,0.241-1.143c0.021-0.065,0.064-0.209,0.108-0.209c0.077,0,0.187,0.11,0.484,0.132
		c0.316,0.034,0.735,0.057,0.866,0.057h4.119c0.35,0,0.603-0.022,0.779-0.057c0.164-0.021,0.262-0.055,0.307-0.055
		c0.055,0,0.055,0.066,0.055,0.132c0,0.33-0.033,1.087-0.033,1.208c0,0.1-0.032,0.144-0.076,0.144c-0.055,0-0.077-0.033-0.088-0.188
		l-0.012-0.12c-0.033-0.329-0.296-0.582-1.351-0.604l-1.383-0.022V25.509z"/>
	<path fill="#FFFFFF" d="M100.819,25.85c0-0.593-0.108-0.835-0.253-1.153c-0.076-0.176-1.548-2.591-1.932-3.162
		c-0.274-0.407-0.549-0.681-0.747-0.813c-0.164-0.109-0.374-0.177-0.472-0.177c-0.055,0-0.11-0.021-0.11-0.076
		c0-0.043,0.044-0.077,0.143-0.077c0.209,0,1.032,0.034,1.087,0.034c0.077,0,0.495-0.034,0.923-0.034
		c0.121,0,0.144,0.034,0.144,0.077c0,0.044-0.066,0.056-0.166,0.1c-0.088,0.043-0.143,0.109-0.143,0.197
		c0,0.131,0.055,0.264,0.143,0.428c0.176,0.318,1.823,3.152,2.021,3.47c0.209-0.46,1.603-2.865,1.822-3.228
		c0.142-0.231,0.185-0.418,0.185-0.562c0-0.152-0.043-0.272-0.175-0.306c-0.098-0.034-0.164-0.056-0.164-0.111
		c0-0.044,0.066-0.065,0.176-0.065c0.286,0,0.638,0.034,0.725,0.034c0.066,0,0.855-0.034,1.064-0.034
		c0.078,0,0.145,0.021,0.145,0.065c0,0.056-0.055,0.088-0.145,0.088c-0.119,0-0.329,0.045-0.504,0.154
		c-0.221,0.131-0.342,0.263-0.582,0.561c-0.362,0.438-1.899,3.02-2.097,3.491c-0.165,0.396-0.165,0.736-0.165,1.099v0.944
		c0,0.176,0,0.637,0.033,1.098c0.021,0.319,0.12,0.56,0.45,0.604c0.153,0.021,0.395,0.043,0.493,0.043
		c0.065,0,0.089,0.033,0.089,0.066c0,0.055-0.056,0.088-0.178,0.088c-0.603,0-1.293-0.033-1.35-0.033
		c-0.054,0-0.746,0.033-1.075,0.033c-0.121,0-0.176-0.021-0.176-0.088c0-0.033,0.021-0.066,0.087-0.066
		c0.099,0,0.23-0.021,0.329-0.043c0.22-0.045,0.319-0.285,0.341-0.604c0.033-0.461,0.033-0.922,0.033-1.098V25.85z"/>
	<path fill="#FFFFFF" d="M3.324,43.073c-1.065-0.955-1.329-2.207-1.329-3.25c0-0.735,0.253-2.021,1.229-2.997
		c0.66-0.659,1.659-1.175,3.35-1.175c0.439,0,1.054,0.033,1.593,0.132c0.417,0.076,0.768,0.143,1.119,0.164
		c0.121,0.011,0.143,0.055,0.143,0.121c0,0.088-0.033,0.22-0.055,0.615c-0.022,0.361-0.022,0.967-0.032,1.131
		c-0.012,0.164-0.034,0.23-0.1,0.23c-0.077,0-0.087-0.076-0.087-0.23c0-0.429-0.176-0.879-0.462-1.12
		c-0.384-0.329-1.229-0.626-2.195-0.626c-1.461,0-2.142,0.429-2.526,0.802c-0.802,0.77-0.989,1.746-0.989,2.865
		c0,2.098,1.614,4.019,3.965,4.019c0.823,0,1.471-0.098,1.91-0.547c0.231-0.243,0.373-0.727,0.406-0.924
		c0.022-0.12,0.044-0.165,0.11-0.165c0.055,0,0.077,0.077,0.077,0.165c0,0.077-0.132,1.032-0.241,1.406
		c-0.066,0.208-0.088,0.229-0.286,0.318c-0.44,0.175-1.274,0.252-1.976,0.252C5.301,44.26,4.191,43.854,3.324,43.073"/>
	<path fill="#FFFFFF" d="M19.542,35.651c2.47,0,4.315,1.559,4.315,4.118c0,2.459-1.734,4.49-4.381,4.49
		c-3.009,0-4.261-2.339-4.261-4.315C15.215,38.166,16.511,35.651,19.542,35.651 M19.772,43.843c0.988,0,3.031-0.571,3.031-3.767
		c0-2.636-1.603-4.052-3.338-4.052c-1.834,0-3.206,1.208-3.206,3.612C16.259,42.194,17.795,43.843,19.772,43.843"/>
	<path fill="#FFFFFF" d="M39.065,42.689c0.044,0.396,0.121,1.011,0.593,1.164c0.319,0.099,0.604,0.099,0.714,0.099
		c0.055,0,0.088,0.013,0.088,0.056c0,0.065-0.098,0.099-0.231,0.099c-0.241,0-1.427-0.033-1.833-0.065
		c-0.253-0.023-0.308-0.056-0.308-0.11c0-0.044,0.022-0.066,0.077-0.077c0.055-0.011,0.066-0.197,0.045-0.395l-0.528-5.667h-0.033
		l-2.69,5.709c-0.231,0.484-0.263,0.583-0.363,0.583c-0.077,0-0.132-0.109-0.341-0.505c-0.285-0.539-1.229-2.437-1.284-2.548
		c-0.098-0.197-1.329-2.832-1.45-3.129h-0.043l-0.439,5.095c-0.012,0.176-0.012,0.374-0.012,0.561c0,0.164,0.121,0.307,0.285,0.34
		c0.188,0.044,0.353,0.055,0.419,0.055c0.043,0,0.088,0.022,0.088,0.056c0,0.076-0.066,0.099-0.198,0.099
		c-0.407,0-0.934-0.033-1.022-0.033c-0.099,0-0.625,0.033-0.922,0.033c-0.11,0-0.186-0.022-0.186-0.099
		c0-0.033,0.054-0.056,0.109-0.056c0.088,0,0.165,0,0.329-0.033c0.363-0.065,0.396-0.493,0.44-0.911l0.791-7.158
		c0.01-0.122,0.054-0.198,0.121-0.198c0.065,0,0.109,0.044,0.164,0.165l3.36,6.906l3.229-6.896c0.043-0.1,0.087-0.176,0.165-0.176
		c0.076,0,0.109,0.088,0.131,0.296L39.065,42.689z"/>
	<path fill="#FFFFFF" d="M55.096,42.689c0.044,0.396,0.121,1.011,0.593,1.164c0.319,0.099,0.604,0.099,0.714,0.099
		c0.056,0,0.089,0.013,0.089,0.056c0,0.065-0.1,0.099-0.23,0.099c-0.242,0-1.428-0.033-1.834-0.065
		c-0.254-0.023-0.31-0.056-0.31-0.11c0-0.044,0.024-0.066,0.078-0.077c0.056-0.011,0.066-0.197,0.043-0.395l-0.525-5.667H53.68
		l-2.691,5.709c-0.23,0.484-0.263,0.583-0.362,0.583c-0.077,0-0.132-0.109-0.34-0.505c-0.286-0.539-1.229-2.437-1.284-2.548
		c-0.099-0.197-1.329-2.832-1.45-3.129h-0.044l-0.439,5.095c-0.011,0.176-0.011,0.374-0.011,0.561c0,0.164,0.12,0.307,0.284,0.34
		c0.187,0.044,0.353,0.055,0.419,0.055c0.044,0,0.087,0.022,0.087,0.056c0,0.076-0.065,0.099-0.197,0.099
		c-0.407,0-0.933-0.033-1.022-0.033c-0.098,0-0.625,0.033-0.922,0.033c-0.109,0-0.186-0.022-0.186-0.099
		c0-0.033,0.054-0.056,0.109-0.056c0.089,0,0.165,0,0.329-0.033c0.363-0.065,0.396-0.493,0.44-0.911l0.791-7.158
		c0.01-0.122,0.054-0.198,0.121-0.198c0.065,0,0.109,0.044,0.164,0.165l3.36,6.906l3.229-6.896c0.043-0.1,0.088-0.176,0.165-0.176
		c0.076,0,0.109,0.088,0.132,0.296L55.096,42.689z"/>
	<path fill="#FFFFFF" d="M62.958,38.989c0-1.714,0-2.021-0.021-2.372c-0.022-0.373-0.11-0.549-0.473-0.625
		c-0.088-0.023-0.274-0.034-0.373-0.034c-0.044,0-0.088-0.021-0.088-0.065c0-0.065,0.055-0.087,0.176-0.087
		c0.252,0,0.549,0,0.791,0.011l0.449,0.021c0.077,0,2.263,0,2.514-0.011c0.21-0.011,0.385-0.034,0.474-0.056
		c0.055-0.012,0.099-0.055,0.153-0.055c0.033,0,0.045,0.043,0.045,0.1c0,0.076-0.056,0.208-0.089,0.516
		c-0.011,0.109-0.032,0.593-0.055,0.725c-0.011,0.055-0.033,0.121-0.077,0.121c-0.066,0-0.087-0.055-0.087-0.143
		c0-0.077-0.012-0.265-0.066-0.396c-0.077-0.177-0.188-0.308-0.779-0.374c-0.188-0.021-1.385-0.032-1.505-0.032
		c-0.044,0-0.065,0.032-0.065,0.109v3.03c0,0.077,0.011,0.11,0.065,0.11c0.143,0,1.493,0,1.745-0.021
		c0.265-0.022,0.418-0.045,0.517-0.155c0.077-0.088,0.12-0.142,0.164-0.142c0.034,0,0.056,0.022,0.056,0.087
		c0,0.066-0.056,0.253-0.088,0.615c-0.022,0.221-0.043,0.627-0.043,0.703c0,0.088,0,0.209-0.077,0.209
		c-0.056,0-0.077-0.045-0.077-0.099c0-0.11,0-0.22-0.044-0.362c-0.044-0.154-0.143-0.341-0.572-0.385
		c-0.295-0.033-1.383-0.055-1.568-0.055c-0.056,0-0.077,0.033-0.077,0.076v0.967c0,0.373-0.011,1.646,0,1.877
		c0.032,0.759,0.196,0.901,1.273,0.901c0.285,0,0.769,0,1.054-0.121c0.285-0.12,0.418-0.341,0.494-0.791
		c0.022-0.12,0.045-0.165,0.1-0.165c0.065,0,0.065,0.089,0.065,0.165c0,0.089-0.087,0.835-0.143,1.065
		c-0.077,0.286-0.165,0.286-0.593,0.286c-0.824,0-1.428-0.022-1.855-0.033c-0.429-0.022-0.692-0.033-0.857-0.033
		c-0.021,0-0.209,0-0.439,0.011c-0.219,0-0.471,0.022-0.636,0.022c-0.121,0-0.176-0.022-0.176-0.089
		c0-0.032,0.021-0.065,0.087-0.065c0.1,0,0.23-0.021,0.33-0.043c0.22-0.045,0.274-0.286,0.318-0.604
		c0.055-0.463,0.055-1.329,0.055-2.384V38.989z"/>
	<path fill="#FFFFFF" d="M74.16,38.989c0-1.714,0-2.021-0.023-2.372c-0.021-0.373-0.109-0.549-0.472-0.625
		c-0.088-0.023-0.274-0.034-0.374-0.034c-0.043,0-0.088-0.021-0.088-0.065c0-0.065,0.055-0.088,0.177-0.088
		c0.494,0,1.185,0.033,1.239,0.033c0.122,0,0.957-0.033,1.297-0.033c0.691,0,1.428,0.066,2.01,0.483
		c0.273,0.197,0.759,0.735,0.759,1.493c0,0.813-0.342,1.625-1.331,2.537c0.9,1.152,1.647,2.13,2.285,2.811
		c0.592,0.625,1.064,0.747,1.338,0.79c0.211,0.033,0.364,0.033,0.43,0.033c0.055,0,0.1,0.033,0.1,0.065
		c0,0.066-0.066,0.089-0.264,0.089H80.46c-0.613,0-0.889-0.056-1.174-0.209c-0.473-0.253-0.857-0.791-1.483-1.614
		c-0.46-0.604-0.977-1.339-1.196-1.625c-0.043-0.044-0.076-0.066-0.143-0.066l-1.35-0.021c-0.056,0-0.078,0.033-0.078,0.088v0.264
		c0,1.055,0,1.922,0.056,2.383c0.032,0.318,0.099,0.56,0.429,0.604c0.153,0.021,0.395,0.043,0.494,0.043
		c0.065,0,0.087,0.033,0.087,0.065c0,0.056-0.056,0.089-0.175,0.089c-0.605,0-1.297-0.033-1.353-0.033
		c-0.011,0-0.701,0.033-1.031,0.033c-0.12,0-0.175-0.022-0.175-0.089c0-0.032,0.021-0.065,0.087-0.065
		c0.099,0,0.23-0.021,0.329-0.043c0.22-0.045,0.274-0.286,0.319-0.604c0.056-0.461,0.056-1.328,0.056-2.383V38.989z M75.037,39.945
		c0,0.054,0.022,0.098,0.078,0.131c0.164,0.1,0.669,0.176,1.152,0.176c0.264,0,0.57-0.033,0.823-0.209
		c0.385-0.263,0.67-0.855,0.67-1.69c0-1.372-0.726-2.196-1.9-2.196c-0.329,0-0.626,0.033-0.735,0.066
		c-0.056,0.021-0.088,0.065-0.088,0.131V39.945z"/>
	<path fill="#FFFFFF" d="M87.181,43.073c-1.064-0.955-1.328-2.207-1.328-3.25c0-0.735,0.253-2.021,1.229-2.997
		c0.659-0.659,1.658-1.175,3.349-1.175c0.44,0,1.055,0.033,1.593,0.132c0.417,0.076,0.77,0.143,1.12,0.164
		c0.12,0.011,0.145,0.055,0.145,0.121c0,0.088-0.035,0.22-0.057,0.615c-0.022,0.361-0.022,0.967-0.033,1.131
		c-0.01,0.164-0.032,0.23-0.1,0.23c-0.076,0-0.087-0.076-0.087-0.23c0-0.429-0.175-0.879-0.461-1.12
		c-0.384-0.329-1.229-0.626-2.196-0.626c-1.46,0-2.141,0.429-2.525,0.802c-0.803,0.77-0.989,1.746-0.989,2.865
		c0,2.098,1.614,4.019,3.964,4.019c0.824,0,1.473-0.098,1.912-0.547c0.23-0.243,0.373-0.727,0.406-0.924
		c0.021-0.12,0.044-0.165,0.109-0.165c0.057,0,0.076,0.077,0.076,0.165c0,0.077-0.131,1.032-0.241,1.406
		c-0.065,0.208-0.088,0.229-0.286,0.318c-0.438,0.175-1.272,0.252-1.977,0.252C89.159,44.26,88.049,43.854,87.181,43.073"/>
	<path fill="#FFFFFF" d="M100.435,38.989c0-1.714,0-2.021-0.022-2.372c-0.021-0.373-0.109-0.549-0.472-0.625
		c-0.088-0.023-0.273-0.034-0.373-0.034c-0.045,0-0.088-0.021-0.088-0.065c0-0.065,0.055-0.087,0.176-0.087
		c0.252,0,0.549,0,0.789,0.011l0.451,0.021c0.077,0,2.262,0,2.515-0.011c0.21-0.011,0.385-0.034,0.472-0.056
		c0.055-0.012,0.1-0.055,0.154-0.055c0.032,0,0.044,0.043,0.044,0.1c0,0.076-0.055,0.208-0.088,0.516
		c-0.011,0.109-0.032,0.593-0.056,0.725c-0.01,0.055-0.032,0.121-0.076,0.121c-0.065,0-0.088-0.055-0.088-0.143
		c0-0.077-0.011-0.265-0.066-0.396c-0.076-0.177-0.186-0.308-0.779-0.374c-0.187-0.021-1.383-0.032-1.504-0.032
		c-0.043,0-0.066,0.032-0.066,0.109v3.03c0,0.077,0.012,0.11,0.066,0.11c0.143,0,1.491,0,1.746-0.021
		c0.264-0.022,0.417-0.045,0.516-0.155c0.077-0.088,0.121-0.142,0.165-0.142c0.032,0,0.055,0.022,0.055,0.087
		c0,0.066-0.055,0.253-0.087,0.615c-0.022,0.221-0.045,0.627-0.045,0.703c0,0.088,0,0.209-0.076,0.209
		c-0.056,0-0.076-0.045-0.076-0.099c0-0.11,0-0.22-0.045-0.362c-0.044-0.154-0.143-0.341-0.57-0.385
		c-0.297-0.033-1.385-0.055-1.571-0.055c-0.054,0-0.077,0.033-0.077,0.076v0.967c0,0.373-0.011,1.646,0,1.877
		c0.033,0.759,0.198,0.901,1.274,0.901c0.283,0,0.769,0,1.054-0.121c0.286-0.12,0.418-0.341,0.495-0.791
		c0.021-0.12,0.043-0.165,0.099-0.165c0.065,0,0.065,0.089,0.065,0.165c0,0.089-0.087,0.835-0.144,1.065
		c-0.076,0.286-0.164,0.286-0.593,0.286c-0.822,0-1.427-0.022-1.855-0.033c-0.428-0.022-0.692-0.033-0.856-0.033
		c-0.021,0-0.208,0-0.439,0.011c-0.219,0-0.472,0.022-0.637,0.022c-0.12,0-0.176-0.022-0.176-0.089c0-0.032,0.023-0.065,0.088-0.065
		c0.1,0,0.23-0.021,0.33-0.043c0.219-0.045,0.274-0.286,0.318-0.604c0.055-0.463,0.055-1.329,0.055-2.384V38.989z"/>
	<line fill="none" stroke="#EDB11F" x1="1.659" y1="32.254" x2="104.681" y2="32.254"/>
	<line fill="none" stroke="#EDB11F" x1="1.659" y1="47.83" x2="104.681" y2="47.83"/>
	<line fill="none" stroke="#EDB11F" x1="1.659" y1="16.663" x2="104.681" y2="16.663"/>
</g>
</svg>
